<?xml version="1.0" encoding="utf-8"?>
<!-- Generator: Adobe Illustrator 24.2.1, SVG Export Plug-In . SVG Version: 6.00 Build 0)  -->
<svg version="1.1" id="Layer_1" xmlns="http://www.w3.org/2000/svg" xmlns:xlink="http://www.w3.org/1999/xlink" x="0px" y="0px"
	 viewBox="0 0 583 478.7" style="enable-background:new 0 0 583 478.7;" xml:space="preserve">
<style type="text/css">
	.st0{fill:#669363;}
</style>
<g id="_x23_ffffffff">
</g>
<g id="_x23_669363ff">
	<path class="st0" d="M172.2,10.2c20.4-10.6,44.8-13.1,67-6.9c20.3,5.5,38.5,17.3,52.8,32.7c11.5-12.3,25.5-22.4,41.2-28.7
		c18.4-7.7,39.3-9.3,58.7-4.5c16.8,4.3,32.4,13.1,44.5,25.5c14.3,14.6,23.2,33.8,27.4,53.6c8,39.2,0.2,80.6-18.2,115.8
		c-14.8,29.2-36,54.9-61,75.9c-15.1,12.9-31.3,24.5-48.3,34.7c-14.4,8.5-29.4,16.4-45.5,20.9c-9.5-4.3-19.2-8.2-28.6-12.8
		c-30.5-16.4-58.8-37.1-83-61.9c-14.3-14.7-26.7-31.4-36.7-49.3c-11.3-20.2-19.8-42.3-23.2-65.3c-4.2-26.7-2.6-54.8,7.8-80
		C135.7,38.8,151.6,20.4,172.2,10.2 M183.7,23.3c-17.2,7.3-31.1,21.5-39,38.4c-10.1,21.1-12.3,45.1-9.8,68.1
		c1.4,16.1,6.1,31.8,12.3,46.8c7.4,17.5,17.3,34,29,49c11.3,14.6,24.7,27.4,38.8,39.2c15.8,12.9,32.6,24.6,50.5,34.4
		c8.5,4.8,17.6,8.1,26.4,12.3c14.9-5.3,28.8-13,42.2-21.4c29.1-18.7,56.5-41,77.2-68.8c21.4-28.8,36.8-63.2,38.7-99.4
		c1.3-22.5-2.2-45.8-13.4-65.6c-9.3-16.5-24.6-29.5-42.6-35.4c-11.7-4.3-24.5-4.7-36.7-3.1c-20.3,3.4-38.6,14.6-52.6,29.4
		c8.9,10.2,17.4,20.8,25.4,31.6c9.8,13.2,19.7,26.7,25.9,42c7.8,18.2,11,38.7,6.9,58.2c-3.7,18.3-13.2,35.2-26.4,48.4
		c-11.5,11.9-25.6,21-40.9,27.2c-2.1,0.9-4.5,1-6.6,0c-24.9-10.1-47-28.4-59.3-52.5c-9.2-18.1-12.2-39.3-7.9-59.2
		c3.5-18.3,12.1-35.3,22.8-50.4c11-15.6,22.5-30.8,35.2-45.1c-12.7-13.6-28.9-24.1-47-28.6C216.5,15.1,198.9,16.4,183.7,23.3
		 M256.2,105.2c-9,13.2-16.2,28.1-18.6,44c-3.1,17.6,0.9,36.2,10.4,51.3c8.7,14,21.4,25,35.6,33.1c0.9-11.2,0.1-22.5,0.5-33.8
		c-0.3-3.4,1-7.7-2.1-10.2c-6.7-6.6-13.3-13.3-20-19.9c-2.8-2.6-5.7-5.9-4.7-10c0.6-6.2,9.2-9,13.6-4.8c4.6,4.1,8.6,8.8,13.2,12.9
		c0.1-14.3,0-28.7,0-43c-0.2-3.3,1.9-6.4,4.9-7.6c4.5-2,10.5,0.7,11.3,5.7c0.5,7.1,0,14.2,0.3,21.4c5.4-4.9,10.1-10.4,15.6-15.2
		c4.7-4.1,12.8-0.3,13.2,5.7c0.6,3.1-1.3,5.9-3.4,8c-8.5,8.4-16.8,16.9-25.4,25.3c0,21.9-0.1,43.8,0,65.8
		c14.2-7.9,26.8-18.9,35.6-32.7c9.3-14.5,13.6-32.3,11.2-49.4c-2.1-15.8-8.6-30.7-17.3-43.9c-11.5-17.1-24.1-33.5-37.6-49.1
		C279.1,73.3,267.3,89,256.2,105.2z"/>
	<path class="st0" d="M218.6,375.2c6.1-0.8,12.1-2,18.3-2.1c1.6,0,2.9,0.8,4.4,1.3c-0.1,25.7,0,51.4-0.1,77.2c2.5,0.3,5,0.7,7.5,1.1
		c0,2.1,0,4.2-0.1,6.4c-9.8,0-19.7,0-29.5,0c0-2.1,0-4.3-0.1-6.4c2.4-0.4,4.8-0.8,7.2-1.2c0-23.1,0-46.2,0-69.3
		c-2.5-0.4-5.1-0.8-7.6-1.1C218.6,379,218.6,377.1,218.6,375.2z"/>
	<path class="st0" d="M266.2,374.3c3.4-1.3,7.5-0.5,10,2.1c4,4.3,1.9,12.5-3.9,14.1c-3.4,1-7.7,0.9-10.3-1.9
		C258.3,384,260.4,376,266.2,374.3z"/>
	<path class="st0" d="M112,381c11.2,0,22.4,0,33.5,0c0,2.1,0,4.2,0,6.3c-3,0.5-6,1.1-8.9,1.7c-0.1,20.2,0.2,40.5-0.2,60.7
		c0,7.3-2.7,14.6-7.9,19.7c-5,5.2-11.9,8-18.9,9.3c-1.1-1.8-2.3-3.6-3.4-5.3c6.5-3,12.2-8.4,13.6-15.7c1.9-8.5,1.7-17.3,1.7-25.9
		c0-14.2,0-28.5,0-42.7c-3.1-0.6-6.3-1.2-9.4-1.8C112,385.2,112,383.1,112,381z"/>
	<path class="st0" d="M350.3,381c22.6,0,45.1,0,67.7,0c0.4,10.1,1.1,20.2,1.3,30.4c-2.8,0-5.6,0-8.4-0.1c-1.5-7.6-2.6-15.3-4.2-22.9
		c-4.8-0.2-9.7-0.4-14.5-0.6c0,21.2,0,42.4,0,63.6c4.8,0.3,9.7,0.7,14.5,1.2c0,2.1,0,4.2-0.1,6.4c-14.5,0-29.1,0-43.6,0
		c0-2.1,0-4.3-0.1-6.4c4.4-0.5,8.9-0.9,13.3-1.2c0-21.2,0-42.4,0-63.6c-4.9,0.2-9.8,0.4-14.8,0.7c-1.4,7.6-2.8,15.2-4.1,22.9
		c-3,0-6,0-9.1,0C349,401.2,349.6,391.1,350.3,381z"/>
	<path class="st0" d="M28,391.8c4.8-0.8,9.6-1.5,14.4-1.5c-0.6,8.8-2.2,17.5-3.3,26.3c2.8-3,5.5-6.4,9.5-7.8
		c3.8-1.5,8.6-1.5,11.7,1.4c1.8,2.1,2.4,4.9,2.5,7.6c-0.3,9.3-3.4,18.3-3.5,27.6c1.9-0.6,3.7-1.3,5.6-2c-0.1,5.4-6.7,7.3-11.2,6.8
		c-2.8,0-4.9-2.6-4.7-5.3c0.6-9.4,4.3-18.5,3.3-28c-0.4-3.5-4.8-3.1-7-1.4c-3.5,2.6-6.7,6.3-7.3,10.8c-1.3,7.8-1.8,15.7-2.9,23.5
		c-3.3,0-6.6,0-9.9,0c2.1-18,4.8-36,6.5-54.1c-1.3-0.3-2.6-0.6-3.8-0.9C28,394,28,392.5,28,391.8z"/>
	<path class="st0" d="M6.6,406.6c1.6-2.6,2.6-5.5,3.8-8.3c1.8,0,3.7,0,5.5,0c-0.4,3.4-0.8,6.8-1.3,10.2c2.9,0,5.9,0,8.8,0
		c-0.2,1.7-0.3,3.4-0.5,5.1c-3,0.1-5.9,0.1-8.9,0.2c-1.2,9.7-3.3,19.3-3.4,29.1c2.8,2.6,6.4-0.1,9.4-0.9c0.2,1,0.4,1.9,0.6,2.9
		c-3.9,3-8.6,5.6-13.8,5.3c-2.7,0-5.5-1.6-6.1-4.3c-0.6-3.9,0.3-7.8,0.8-11.6c1.1-6.8,1.8-13.6,2.8-20.5c-1.4,0-2.8,0-4.2,0
		c0.2-1.1,0.3-2.3,0.5-3.4C2.6,409.3,5.4,408.9,6.6,406.6z"/>
	<path class="st0" d="M445.5,412c4.8-8.2,13.9-14.7,23.8-12.7c0,5.3,0,10.6,0,16c-6.8-3.4-14.9-1.9-21.2,1.9c0,11.5,0,22.9,0,34.4
		c4.1,0.4,8.2,0.8,12.3,1.2c0,2.1,0,4.1-0.1,6.2c-11.3,0-22.7,0-34,0c0-2.1,0-4.1,0-6.2c2.3-0.4,4.6-0.8,6.9-1.1
		c0-13.7,0-27.4,0-41.1c-2.1-0.6-4.3-1.1-6.4-2c-0.5-2.4-0.3-4.9-0.4-7.3c5.6-0.8,11.3-1.4,16.9-2.4
		C447.6,402,445.4,407.6,445.5,412z"/>
	<path class="st0" d="M489.2,402.1c8-3.9,17.8-4.4,25.9-0.6c5.1,2.5,8.4,7.7,9.5,13.2c1.1,5.3,0.5,10.7-0.1,16
		c-11.5,0-22.9,0-34.4,0c0.8,6.9,2.4,15.2,9.4,18.5c7.3,3.2,15.7,0.6,22.4-3c0.9,2,1.8,4,2.7,5.9c-7.7,6.2-17.9,9-27.7,7.5
		c-7-0.6-13.7-4.4-17.2-10.5c-5-7.8-5.1-17.4-4.3-26.3C476.5,414.4,481.3,406,489.2,402.1 M493.1,410.2c-2.5,4.2-2.5,9.2-3.1,13.9
		c6.8,0,13.6,0,20.5,0c0.1-5.6,0.6-12.1-3.7-16.5C502.8,404.5,495.7,405.6,493.1,410.2z"/>
	<path class="st0" d="M547.1,402c7.6-3.6,16.7-4.2,24.5-1c4.7,1.9,8.3,6,9.8,10.8c2.2,6,1.6,12.6,0.7,18.8c-11.4,0-22.9,0-34.3,0
		c0.5,7,2.5,15.4,9.5,18.6c7.4,3,15.7,0.4,22.3-3.3c0.7,2.1,1.8,4.1,1.9,6.3c-7.6,6.5-18.2,8.7-27.9,7.2c-6.4-0.7-12.5-4.2-16-9.7
		c-5.1-7.7-5.8-17.3-4.8-26.2C533.8,414.8,538.9,406,547.1,402 M551,410c-2.6,4.3-2.8,9.4-3.2,14.2c6.8,0,13.5,0,20.3,0
		c0.1-4.7,0.4-9.7-1.7-14C563.6,404.3,554.2,404.6,551,410z"/>
	<path class="st0" d="M151.5,400.6c6.7,0.2,13.6-2.3,20.2-0.3c0,13.2-0.1,26.3,0.1,39.5c0.3,3.8,0.3,8.9,4.4,10.8
		c5.6,2.3,11.5-0.4,16-3.7c0-12.9,0-25.7,0-38.6c-2.4-0.6-4.7-1.2-7.1-1.8c0-2,0-3.9,0-5.9c6-0.2,11.9-0.9,17.9-1.2
		c1.5-0.1,4,0.4,3.7,2.4c0.2,16.9,0,33.8,0.1,50.7c2,0,4,0,6,0c0,2-0.1,4.1-0.1,6.2c-5.4,0.8-11,2.3-16.3,0.6
		c-2.8-1.4-2.1-5-2.7-7.5c-4.5,4.5-10.3,8-16.8,8.3c-6,0.3-13.3-0.8-16.7-6.4c-3.4-6-3.5-13.1-3.4-19.8c0-8.6,0-17.1,0-25.7
		c-1.7-0.5-3.4-0.9-5.1-1.4C151.5,404.6,151.5,402.6,151.5,400.6z"/>
	<path class="st0" d="M255.3,401.4c6.6-0.8,13.2-1.4,19.8-2.5c1.7,1.5,3.3,3.3,2.9,5.8c-0.2,15.5,0.4,31.1-0.4,46.6
		c2.4,0.5,4.8,0.7,7.2,1.5c0.2,2,0.1,4.1,0.1,6.1c-9.8,0-19.6,0-29.4,0c0-2.1,0-4.3,0-6.4c2.4-0.4,4.9-0.8,7.3-1.2
		c-0.1-13.7,0-27.3,0-41c-2.4-0.6-4.8-1.2-7.3-1.7C255.4,406.3,255.4,403.8,255.3,401.4z"/>
	<path class="st0" d="M293.5,406.9c9.5-6,21.2-9.2,32.4-7.1c3.9,0.6,7.9,2.2,10.2,5.6c3,4.1,3.4,9.4,3.4,14.4c0,11,0,21.9,0,32.8
		c1.9,0,3.8,0,5.7,0c0,2,0,4.1,0,6.1c-6,0.7-12,1.8-18,0.5c-0.4-2.3-0.7-4.6-1-6.9c-3.6,3-7.4,6.2-12.1,7
		c-6.3,1.3-13.7,0.3-18.3-4.6c-4.2-4.1-5.2-10.5-4.2-16.1c0.9-5,5.1-8.7,9.5-10.8c7.6-3.6,16.1-4.8,24.5-4.8
		c-0.1-4.4,0.5-10.5-4.3-12.7c-8.2-3-16.9,0.2-24.5,3.6C295.7,411.6,294.6,409.3,293.5,406.9 M310.1,434c-4.6,4-4.2,12.3,0.6,15.9
		c4.7,3,10.7,0.5,14.6-2.9c0.7-5.8,0.1-11.8,0.3-17.6C320.2,430,314.2,430.2,310.1,434z"/>
	<path class="st0" d="M87.5,408.5c4.4-1.2,9.5-1.4,13.5,1.1c3.5,2.4,4.3,7.4,2.9,11.2c-1.3,4.1-5,6.6-8.6,8.4
		c-4.4,2.3-9.4,2.8-14.2,3.3c0.4,4.3,1,9.9,5.6,11.6c5.2,1.4,9.9-2.3,13.6-5.4c0.7,1.1,1.4,2.2,2,3.3c-2.9,3-6,5.9-10,7.1
		c-6.3,2.1-14.3,1.2-18.5-4.4c-4.1-5.8-3.9-13.5-1.8-19.9C74.2,417.4,79.9,410.7,87.5,408.5 M85.9,414.8c-3.1,3.9-3.9,9-4.7,13.8
		c5.1-0.9,11-3,13.2-8.2c0.5-2.6,0.9-6.2-1.5-8C90.3,411.6,87.4,412.7,85.9,414.8z"/>
</g>
</svg>
