<?xml version="1.0" encoding="utf-8"?>
<!-- Generator: Adobe Illustrator 25.1.0, SVG Export Plug-In . SVG Version: 6.00 Build 0)  -->
<svg version="1.1" id="Capa_1" xmlns="http://www.w3.org/2000/svg" xmlns:xlink="http://www.w3.org/1999/xlink" x="0px" y="0px"
	 viewBox="0 0 2257.5 864.1" style="enable-background:new 0 0 2257.5 864.1;" xml:space="preserve">
<g transform="matrix(1 0 0 1 0 0)">
	<g>
		<path d="M0,26.5h244.3v47.3h-98.7v320.6H96.2V73.8H0V26.5z"/>
		<path d="M429.5,183.7h47.3v210.7h-42.7l-3.1-40.2c-7.1,14.2-18.2,25.9-33.1,34.9c-14.9,9-31.6,13.5-49.9,13.5l0,0
			c-19.3,0-35.2-5.9-47.6-17.6c-12.4-11.7-18.9-26.9-19.6-45.5l0,0V183.7h47.3v138.9c0.7,11.9,4.2,21.3,10.4,28.2
			c6.3,7,15.7,10.6,28.2,10.9l0,0c11.5,0,22.1-3.5,31.6-10.4s17-16.5,22.6-28.8c5.6-12.2,8.4-25.8,8.4-40.7l0,0V183.7z"/>
		<path d="M579.6,91.1h47.8v93.1H685v37.7h-57.5v172.5h-47.8V221.9H541v-37.7h38.7V91.1z"/>
		<path d="M891.1,183.7h47.3v210.7h-42.7l-3.1-40.2c-7.1,14.2-18.2,25.9-33.1,34.9c-14.9,9-31.6,13.5-49.9,13.5l0,0
			c-19.3,0-35.2-5.9-47.6-17.6c-12.4-11.7-18.9-26.9-19.6-45.5l0,0V183.7h47.3v138.9c0.7,11.9,4.2,21.3,10.4,28.2
			c6.3,7,15.7,10.6,28.2,10.9l0,0c11.5,0,22.1-3.5,31.6-10.4s17-16.5,22.6-28.8c5.6-12.2,8.4-25.8,8.4-40.7l0,0V183.7z"/>
		<path d="M1005.6,26.5h244.3v47.3h-98.7v320.6h-49.4V73.8h-96.2V26.5z"/>
		<path d="M1361.3,358.8c17.6,0,34.8-6.1,51.4-18.3l0,0l21.9,35.1c-11.2,7.5-23.3,13.3-36.4,17.6c-13.1,4.2-25.7,6.4-37.9,6.4l0,0
			c-23.4,0-43.9-4.8-61.3-14.5s-31-23-40.5-39.9s-14.2-36.1-14.2-57.5l0,0c0-20.7,5.2-39.6,15.5-56.7c10.3-17.1,24.5-30.7,42.5-40.7
			c18-10,37.7-15,59-15l0,0c27.5,0,50.5,8.1,69,24.2s31.1,38.6,37.9,67.4l0,0l-166.9,58.5c6.1,10.5,14.3,18.7,24.7,24.7
			S1348.1,358.8,1361.3,358.8L1361.3,358.8z M1357.8,212.7c-19.3,0-35.3,6.8-47.8,20.4s-18.8,30.9-18.8,51.9l0,0
			c0,5.1,0.2,9,0.5,11.7l0,0l122.6-45.3c-5.1-11.5-12.3-20.9-21.6-28C1383.3,216.3,1371.7,212.7,1357.8,212.7L1357.8,212.7z"/>
		<path d="M1699.7,183.7h43.8v210.7h-47.3v-34.6c-7.5,9.8-18.3,18.9-32.6,27.2c-14.2,8.3-30.4,12.5-48.3,12.5l0,0
			c-20,0-38.1-4.3-54.2-13c-16.1-8.7-28.8-21.3-38.2-37.9c-9.3-16.6-14-36.5-14-59.5l0,0c0-23.1,4.8-43.2,14.5-60.3
			c9.7-17.1,22.7-30.4,39.2-39.7c16.5-9.3,34.7-14,54.7-14l0,0c18,0,33.6,3.9,46.8,11.7c13.2,7.8,23.9,18,32.1,30.5l0,0
			L1699.7,183.7z M1628,360.3c17.3,0,32.1-4.8,44.5-14.5c12.4-9.7,20.3-22.8,23.7-39.4l0,0v-41.7c-4.1-14.9-12.6-27.1-25.4-36.4
			s-27.7-14-44.3-14l0,0c-12.6,0-24.2,3.1-34.9,9.2c-10.7,6.1-19.2,14.7-25.4,25.7s-9.4,23.5-9.4,37.4l0,0c0,13.6,3.2,26,9.7,37.1
			c6.4,11.2,15.1,20.1,26,26.7C1603.2,357,1615.1,360.3,1628,360.3L1628,360.3z"/>
		<path d="M1996.9,374.5c-9.5,7.8-20.8,13.9-33.8,18.3c-13.1,4.4-26.4,6.6-39.9,6.6l0,0c-22.7,0-42.8-4.6-60.3-13.7
			c-17.5-9.2-31-22.1-40.7-38.9c-9.7-16.8-14.5-36.2-14.5-58.3l0,0c0-21.7,5.1-41,15.3-57.8s23.7-29.8,40.7-38.9
			c17-9.2,35.3-13.7,55-13.7l0,0c32.2,0,58.9,8.8,79.9,26.5l0,0l-23.9,31c-6.8-5.1-14.6-9.4-23.4-13c-8.8-3.6-18.3-5.3-28.5-5.3l0,0
			c-12.6,0-24,3.1-34.4,9.4c-10.3,6.3-18.5,14.8-24.4,25.7c-5.9,10.9-8.9,22.9-8.9,36.1l0,0c0,13.2,3.1,25.3,9.4,36.1
			c6.3,10.9,14.8,19.5,25.7,26c10.9,6.4,23.2,9.7,37.2,9.7l0,0c17.3,0,32.4-5.1,45.3-15.3l0,0L1996.9,374.5z"/>
		<path d="M2188.8,175.6c19.7,0,36,5.9,48.9,17.6s19.5,26.9,19.8,45.5l0,0v155.7h-47.8V255c-0.7-11.9-4.2-21.2-10.7-28
			c-6.4-6.8-16.1-10.3-29-10.7l0,0c-12.2,0-23.2,3.4-33.1,10.2s-17.6,16.3-23.2,28.5c-5.6,12.2-8.4,25.8-8.4,40.7l0,0v98.7H2058V0
			h46.3v221.9c7.8-13.9,19.1-25.1,33.8-33.6C2152.9,179.8,2169.8,175.6,2188.8,175.6L2188.8,175.6z"/>
	</g>
	<g>
		<path d="M464.3,856.7"/>
		<path d="M0,522.8h198.1v42.9H44.8V672h134.4v42.9H44.8v141.8H0V522.8z"/>
		<path d="M219.8,759.2c0-18.8,4.5-35.9,13.6-51.5c9.1-15.5,21.7-27.8,37.9-36.7c16.2-8.9,34.4-13.4,54.7-13.4l0,0
			c20.3,0,38.4,4.5,54.3,13.4c15.9,8.9,28.2,21.1,36.9,36.5c8.8,15.4,13.2,32.6,13.2,51.7l0,0c0,19.1-4.4,36.4-13.2,51.9
			S396,839,380,847.9c-16,8.9-34.3,13.4-54.9,13.4l0,0c-20,0-38-4.2-54-12.7s-28.6-20.4-37.6-35.8
			C224.3,797.4,219.8,779.6,219.8,759.2L219.8,759.2z M263.2,759.7c0,12,2.7,23.1,8.1,33.2c5.4,10.2,12.8,18.2,22.2,24
			c9.4,5.8,19.8,8.8,31.2,8.8l0,0c17.9,0,32.6-6.3,44.3-18.9s17.5-28.3,17.5-47.1l0,0c0-18.8-5.8-34.6-17.5-47.3
			s-26.5-19.2-44.3-19.2l0,0c-11.7,0-22.2,3-31.4,9c-9.2,6-16.5,14.1-21.9,24.2C265.9,736.6,263.2,747.7,263.2,759.7L263.2,759.7z"
			/>
		<path d="M622.9,665.5h42.9v191.2h-38.8l-2.8-36.5c-6.5,12.9-16.5,23.5-30,31.6s-28.6,12.2-45.3,12.2l0,0
			c-17.5,0-31.9-5.3-43.2-15.9c-11.2-10.6-17.2-24.4-17.8-41.3l0,0V665.5H531v126.1c0.6,10.8,3.8,19.3,9.5,25.6
			c5.7,6.3,14.2,9.6,25.6,9.9l0,0c10.5,0,20-3.2,28.6-9.5c8.6-6.3,15.5-15,20.5-26.1c5.1-11.1,7.6-23.4,7.6-36.9l0,0V665.5z"/>
		<path d="M859.3,658.1c17.9,0,32.6,5.3,44.3,15.9c11.7,10.6,17.7,24.4,18,41.3l0,0v141.3h-43.4V730.2c-0.6-10.8-3.8-19.2-9.7-25.4
			c-5.8-6.2-14.6-9.4-26.3-9.7l0,0c-16.9,0-30.9,6.8-42,20.3c-11.1,13.5-16.6,30.8-16.6,51.7l0,0v89.6h-42.9V665.5h38.8l2.8,36.9
			c6.8-13.9,16.9-24.7,30.5-32.6C826.2,662.1,841.8,658.1,859.3,658.1L859.3,658.1z"/>
		<path d="M1152.5,498.8h42.9v357.8h-43.4v-30c-9.2,10.8-20.5,19.2-33.9,25.4c-13.4,6.2-28.1,9.2-44.1,9.2l0,0
			c-17.9,0-34-4.3-48.5-12.9c-14.5-8.6-25.8-20.7-33.9-36.2s-12.2-33.5-12.2-53.8l0,0c0-20.6,4.3-38.6,12.9-53.8
			c8.6-15.2,20.5-26.9,35.6-34.9c15.1-8,32.2-12,51.3-12l0,0c14.5,0,28.4,3,41.8,9c13.4,6,23.9,14.2,31.6,24.7l0,0V498.8z
			 M1087.4,824.4c16.6,0,30.7-4.5,42.3-13.4s19-20.9,22.4-36l0,0v-36c-3.7-13.9-11.5-25.2-23.5-33.9c-12-8.8-25.7-13.2-41.1-13.2
			l0,0c-11.7,0-22.5,2.8-32.3,8.5c-9.9,5.7-17.7,13.5-23.5,23.5c-5.8,10-8.8,21.3-8.8,33.9l0,0c0,12.3,2.9,23.5,8.8,33.7
			c5.8,10.2,13.7,18.2,23.5,24C1065,821.4,1075.7,824.4,1087.4,824.4L1087.4,824.4z"/>
		<path d="M1426.4,665.5h39.7v191.2h-42.9v-31.4c-6.8,8.9-16.6,17.2-29.6,24.7c-12.9,7.5-27.6,11.3-43.9,11.3l0,0
			c-18.2,0-34.6-3.9-49.2-11.8c-14.6-7.8-26.2-19.3-34.6-34.4c-8.5-15.1-12.7-33.1-12.7-54l0,0c0-20.9,4.4-39.2,13.2-54.7
			c8.8-15.5,20.6-27.6,35.6-36c14.9-8.5,31.5-12.7,49.6-12.7l0,0c16.3,0,30.5,3.5,42.5,10.6c12,7.1,21.7,16.3,29.1,27.7l0,0
			L1426.4,665.5z M1361.2,825.7c15.7,0,29.2-4.4,40.4-13.2c11.2-8.8,18.4-20.7,21.5-35.8l0,0v-37.9c-3.7-13.5-11.4-24.5-23.1-33
			c-11.7-8.5-25.1-12.7-40.2-12.7l0,0c-11.4,0-21.9,2.8-31.6,8.3c-9.7,5.5-17.4,13.3-23.1,23.3c-5.7,10-8.5,21.3-8.5,33.9l0,0
			c0,12.3,2.9,23.5,8.8,33.7c5.8,10.2,13.7,18.2,23.5,24.2S1349.5,825.7,1361.2,825.7L1361.2,825.7z"/>
		<path d="M1559.3,581.5h43.4V666h52.2v34.2h-52.2v156.5h-43.4V700.1h-35.1V666h35.1V581.5z"/>
		<path d="M1707.1,665.5h42.9v191.2h-42.9V665.5z M1703.9,596.7c0-6.8,2.6-12.5,7.9-17.1c5.2-4.6,11.2-6.9,18-6.9l0,0
			c6.8,0,12.7,2.3,17.8,6.9s7.6,10.3,7.6,17.1l0,0c0,6.8-2.5,12.5-7.6,17.1c-5.1,4.6-11,6.9-17.8,6.9l0,0c-6.8,0-12.8-2.3-18-6.9
			C1706.5,609.2,1703.9,603.5,1703.9,596.7L1703.9,596.7z"/>
		<path d="M1808.2,759.2c0-18.8,4.5-35.9,13.6-51.5c9.1-15.5,21.7-27.8,37.9-36.7c16.2-8.9,34.4-13.4,54.7-13.4l0,0
			c20.3,0,38.4,4.5,54.3,13.4c15.9,8.9,28.2,21.1,36.9,36.5c8.8,15.4,13.2,32.6,13.2,51.7l0,0c0,19.1-4.4,36.4-13.2,51.9
			c-8.8,15.5-21.2,27.8-37.2,36.7c-16,8.9-34.3,13.4-54.9,13.4l0,0c-20,0-38-4.2-54-12.7c-16-8.5-28.6-20.4-37.6-35.8
			C1812.8,797.4,1808.2,779.6,1808.2,759.2L1808.2,759.2z M1851.6,759.7c0,12,2.7,23.1,8.1,33.2c5.4,10.2,12.8,18.2,22.2,24
			c9.4,5.8,19.8,8.8,31.2,8.8l0,0c17.9,0,32.6-6.3,44.3-18.9c11.7-12.6,17.5-28.3,17.5-47.1l0,0c0-18.8-5.8-34.6-17.5-47.3
			c-11.7-12.8-26.5-19.2-44.3-19.2l0,0c-11.7,0-22.2,3-31.4,9c-9.2,6-16.5,14.1-21.9,24.2C1854.3,736.6,1851.6,747.7,1851.6,759.7
			L1851.6,759.7z"/>
		<path d="M2195.2,658.1c17.9,0,32.6,5.3,44.3,15.9c11.7,10.6,17.7,24.4,18,41.3l0,0v141.3h-43.4V730.2c-0.6-10.8-3.8-19.2-9.7-25.4
			c-5.8-6.2-14.6-9.4-26.3-9.7l0,0c-16.9,0-30.9,6.8-42,20.3c-11.1,13.5-16.6,30.8-16.6,51.7l0,0v89.6h-42.9V665.5h38.8l2.8,36.9
			c6.8-13.9,16.9-24.7,30.5-32.6C2162.1,662.1,2177.6,658.1,2195.2,658.1L2195.2,658.1z"/>
	</g>
</g>
</svg>
