<svg xmlns="http://www.w3.org/2000/svg" viewBox="0 0 90.01 90.01"><defs><style>.cls-1{fill:#242237;}.cls-2{fill:#fff;}</style></defs><g id="Capa_2" data-name="Capa 2"><g id="Capa_2-2" data-name="Capa 2"><rect class="cls-1" width="90.01" height="90.01"/><path class="cls-2" d="M11.68,33h7.21v1.4H16v9.46H14.52V34.43H11.68Z"/><path class="cls-2" d="M24.36,37.67h1.39v6.22H24.49l-.09-1.18a2.54,2.54,0,0,1-1,1,2.84,2.84,0,0,1-1.47.4h0a2,2,0,0,1-1.4-.52A1.87,1.87,0,0,1,20,42.27h0v-4.6h1.39v4.1a1.35,1.35,0,0,0,.31.84,1.13,1.13,0,0,0,.83.32h0a1.54,1.54,0,0,0,.94-.31,2,2,0,0,0,.66-.85,2.77,2.77,0,0,0,.25-1.2h0v-2.9Z"/><path class="cls-2" d="M28.79,34.94H30.2v2.75h1.7V38.8H30.2v5.09H28.79V38.8H27.65V37.69h1.14V34.94Z"/><path class="cls-2" d="M38,37.67h1.39v6.22H38.12L38,42.71a2.54,2.54,0,0,1-1,1,2.84,2.84,0,0,1-1.47.4h0a2,2,0,0,1-1.41-.52,1.9,1.9,0,0,1-.57-1.35h0v-4.6H35v4.1a1.35,1.35,0,0,0,.31.84,1.13,1.13,0,0,0,.83.32h0a1.54,1.54,0,0,0,.94-.31,2,2,0,0,0,.66-.85,2.77,2.77,0,0,0,.25-1.2h0v-2.9Z"/><path class="cls-2" d="M41.37,33h7.21v1.4H45.67v9.46H44.21V34.43H41.37V33Z"/><path class="cls-2" d="M51.87,42.84a2.54,2.54,0,0,0,1.52-.54h0l.65,1a4.68,4.68,0,0,1-1.08.52,3.81,3.81,0,0,1-1.12.19h0A3.64,3.64,0,0,1,50,43.62a3.07,3.07,0,0,1-1.19-1.18,3.3,3.3,0,0,1-.42-1.7h0a3.19,3.19,0,0,1,.45-1.67,3.3,3.3,0,0,1,1.26-1.2,3.47,3.47,0,0,1,1.74-.45h0a3,3,0,0,1,2,.72,3.68,3.68,0,0,1,1.12,2h0L50.1,41.86a2,2,0,0,0,.73.73,2.11,2.11,0,0,0,1,.25Zm-.1-4.31a1.84,1.84,0,0,0-1.41.6,2.17,2.17,0,0,0-.56,1.53h0a2.87,2.87,0,0,0,0,.35h0l3.62-1.34a2.13,2.13,0,0,0-.64-.83,1.72,1.72,0,0,0-1-.31Z"/><path class="cls-2" d="M61.86,37.67h1.3v6.22h-1.4v-1a3.31,3.31,0,0,1-1,.81,2.84,2.84,0,0,1-1.43.36h0a3.29,3.29,0,0,1-1.6-.38,2.9,2.9,0,0,1-1.13-1.12,3.6,3.6,0,0,1-.41-1.76h0A3.53,3.53,0,0,1,56.66,39a3.08,3.08,0,0,1,1.15-1.17,3.3,3.3,0,0,1,1.62-.41h0a2.67,2.67,0,0,1,1.38.34,2.93,2.93,0,0,1,.95.9h0Zm-2.11,5.22a2,2,0,0,0,1.31-.43,1.89,1.89,0,0,0,.7-1.16h0V40.06A1.89,1.89,0,0,0,61,39a2.15,2.15,0,0,0-1.31-.41h0a2.06,2.06,0,0,0-1,.27,2,2,0,0,0-.75.76,2.22,2.22,0,0,0-.28,1.1h0a2.18,2.18,0,0,0,.29,1.1,2.13,2.13,0,0,0,.77.78,1.89,1.89,0,0,0,1,.3Z"/><path class="cls-2" d="M70.64,43.31a3.2,3.2,0,0,1-1,.54,3.69,3.69,0,0,1-1.18.19h0a3.8,3.8,0,0,1-1.78-.4,3,3,0,0,1-1.2-1.15,3.35,3.35,0,0,1-.43-1.72h0a3.26,3.26,0,0,1,.45-1.71,3,3,0,0,1,1.21-1.15,3.35,3.35,0,0,1,1.62-.4h0a3.55,3.55,0,0,1,2.36.78h0L70,39.2a3.24,3.24,0,0,0-.69-.38,2.13,2.13,0,0,0-.84-.16h0a2,2,0,0,0-1,.28,2.1,2.1,0,0,0-.72.76,2.26,2.26,0,0,0-.26,1.07h0a2,2,0,0,0,.28,1.06,2.16,2.16,0,0,0,.76.77,2.1,2.1,0,0,0,1.1.29h0a2.08,2.08,0,0,0,1.33-.45h0Z"/><path class="cls-2" d="M76.3,37.43a2.09,2.09,0,0,1,1.45.52,1.8,1.8,0,0,1,.58,1.35h0v4.59H76.92V39.78a1.27,1.27,0,0,0-.31-.83,1.18,1.18,0,0,0-.86-.31h0a1.69,1.69,0,0,0-1,.3,2,2,0,0,0-.68.84,2.77,2.77,0,0,0-.25,1.2h0v2.91h-1.4V32.25h1.37V38.8a2.57,2.57,0,0,1,1-1,2.92,2.92,0,0,1,1.49-.38Z"/><path class="cls-2" d="M11.68,47.69h5.84V49H13v3.14h4v1.27H13v4.18H11.68Z"/><path class="cls-2" d="M18.17,54.67a3,3,0,0,1,.4-1.53,2.91,2.91,0,0,1,1.12-1.08,3.28,3.28,0,0,1,1.61-.39h0a3.24,3.24,0,0,1,1.6.39A2.7,2.7,0,0,1,24,53.14a3,3,0,0,1,.39,1.53h0A3.06,3.06,0,0,1,24,56.2a2.76,2.76,0,0,1-1.09,1.08,3.26,3.26,0,0,1-1.63.4h0a3.33,3.33,0,0,1-1.59-.37,2.9,2.9,0,0,1-1.11-1.06,3,3,0,0,1-.4-1.58Zm1.28,0a2.06,2.06,0,0,0,.24,1,1.78,1.78,0,0,0,.65.71,1.75,1.75,0,0,0,.92.26h0a1.71,1.71,0,0,0,1.31-.56,1.93,1.93,0,0,0,.52-1.39h0a2,2,0,0,0-.52-1.4,1.71,1.71,0,0,0-1.31-.56h0a1.7,1.7,0,0,0-.92.26,1.88,1.88,0,0,0-.65.72,2.06,2.06,0,0,0-.24,1Z"/><path class="cls-2" d="M30.07,51.9h1.26v5.64H30.19l-.08-1.07a2.33,2.33,0,0,1-.89.93,2.54,2.54,0,0,1-1.34.36h0a1.8,1.8,0,0,1-1.27-.47,1.7,1.7,0,0,1-.53-1.22h0V51.9h1.27v3.72a1.27,1.27,0,0,0,.28.76,1,1,0,0,0,.76.29h0a1.4,1.4,0,0,0,.85-.28,2,2,0,0,0,.6-.77,2.59,2.59,0,0,0,.22-1.09h0V51.9Z"/><path class="cls-2" d="M37.05,51.68a1.9,1.9,0,0,1,1.31.47,1.63,1.63,0,0,1,.53,1.22h0v4.17H37.61V53.81a1.16,1.16,0,0,0-.29-.75,1.07,1.07,0,0,0-.78-.29h0a1.54,1.54,0,0,0-1.24.6,2.38,2.38,0,0,0-.49,1.53h0v2.64H33.55V51.9h1.14L34.77,53a2.25,2.25,0,0,1,.9-1,2.72,2.72,0,0,1,1.38-.35Z"/><path class="cls-2" d="M45.71,47H47V57.54H45.69v-.88a3,3,0,0,1-1,.75,3.12,3.12,0,0,1-1.3.27h0A2.75,2.75,0,0,1,42,57.3a2.67,2.67,0,0,1-1-1.07,3.51,3.51,0,0,1-.36-1.59h0A3.12,3.12,0,0,1,41,53.05,2.54,2.54,0,0,1,42,52a3.12,3.12,0,0,1,1.51-.35h0a3,3,0,0,1,1.24.26,2.35,2.35,0,0,1,.93.73h0V47Zm-1.93,9.61A2,2,0,0,0,45,56.2a1.82,1.82,0,0,0,.66-1.07h0V54.07a1.79,1.79,0,0,0-.69-1,2,2,0,0,0-1.21-.39h0a1.86,1.86,0,0,0-1,.25,1.9,1.9,0,0,0-.69.69,2,2,0,0,0-.26,1h0a2,2,0,0,0,.95,1.71,1.86,1.86,0,0,0,1,.26Z"/><path class="cls-2" d="M53.79,51.9H55v5.64H53.7v-.92a2.88,2.88,0,0,1-.88.73,2.53,2.53,0,0,1-1.29.33h0a2.91,2.91,0,0,1-1.45-.35,2.5,2.5,0,0,1-1-1,3.23,3.23,0,0,1-.37-1.6h0a3.17,3.17,0,0,1,.39-1.61,2.77,2.77,0,0,1,1-1.07,2.91,2.91,0,0,1,1.46-.37h0a2.43,2.43,0,0,1,1.26.31,2.6,2.6,0,0,1,.86.82h0Zm-1.92,4.73a1.87,1.87,0,0,0,1.19-.39,1.79,1.79,0,0,0,.64-1.06h0V54.06a1.72,1.72,0,0,0-.69-1,2,2,0,0,0-1.18-.38h0a1.91,1.91,0,0,0-.94.25,1.8,1.8,0,0,0-.68.69,2,2,0,0,0-.25,1h0a2,2,0,0,0,.95,1.71,1.88,1.88,0,0,0,1,.27Z"/><path class="cls-2" d="M57.72,49.42H59v2.49h1.54v1H59v4.62H57.72V52.92h-1v-1h1Z"/><path class="cls-2" d="M62.08,51.9h1.27v5.64H62.08Zm-.09-2a.64.64,0,0,1,.23-.51.79.79,0,0,1,.53-.2h0a.79.79,0,0,1,.53.2.67.67,0,0,1,.22.51h0a.63.63,0,0,1-.22.5.76.76,0,0,1-.53.21h0a.76.76,0,0,1-.53-.21.61.61,0,0,1-.23-.5Z"/><path class="cls-2" d="M65.07,54.67a3,3,0,0,1,.4-1.53,2.91,2.91,0,0,1,1.12-1.08,3.31,3.31,0,0,1,1.61-.39h0a3.28,3.28,0,0,1,1.61.39,2.76,2.76,0,0,1,1.09,1.08,3,3,0,0,1,.39,1.53h0a3.06,3.06,0,0,1-.39,1.53,2.79,2.79,0,0,1-1.1,1.08,3.35,3.35,0,0,1-1.62.4h0a3.38,3.38,0,0,1-1.6-.38,2.81,2.81,0,0,1-1.11-1,3,3,0,0,1-.4-1.58Zm1.28,0a2.06,2.06,0,0,0,.24,1,1.86,1.86,0,0,0,.65.71,1.75,1.75,0,0,0,.92.26h0a1.71,1.71,0,0,0,1.31-.56A1.93,1.93,0,0,0,70,54.68h0a2,2,0,0,0-.52-1.4,1.71,1.71,0,0,0-1.31-.56h0a1.7,1.7,0,0,0-.92.26,2,2,0,0,0-.65.72,2.06,2.06,0,0,0-.24,1Z"/><path class="cls-2" d="M76.49,51.68a1.88,1.88,0,0,1,1.31.47,1.59,1.59,0,0,1,.53,1.22h0v4.17H77.05V53.81a1.16,1.16,0,0,0-.28-.75,1.11,1.11,0,0,0-.78-.29h0a1.54,1.54,0,0,0-1.24.6,2.32,2.32,0,0,0-.49,1.53h0v2.64H73V51.9h1.15L74.22,53a2.2,2.2,0,0,1,.9-1,2.68,2.68,0,0,1,1.37-.35Z"/></g></g></svg>