<?xml version="1.0" encoding="utf-8"?>
<!-- Generator: Adobe Illustrator 25.1.0, SVG Export Plug-In . SVG Version: 6.00 Build 0)  -->
<svg version="1.1" id="Layer_1" xmlns="http://www.w3.org/2000/svg" xmlns:xlink="http://www.w3.org/1999/xlink" x="0px" y="0px"
	 viewBox="0 0 681.5 963" style="enable-background:new 0 0 681.5 963;" xml:space="preserve">
<style type="text/css">
	.st0{fill:#FFFFFF;}
</style>
<g id="_x23_5393d0ff">
	<path class="st0" d="M537.8,6.2c4.4-3.3,10-4.5,15.4-5.3c11.6-1.2,23.2-1.3,34.8-0.1c6.7,0.7,12.7,4.8,16.1,10.5
		c5.7,9.5,7.5,21.8,2.9,32.1c-3,6.9-5.5,14-9.7,20.3c-3.2,5.7-7.6,11.6-7,18.5c0.2,3.7,3.3,6.1,6.3,7.6c5.7,3.3,12.8,3.2,18.4,6.7
		c8.7,7,12,21.4,4.3,30.3c-6.9,7.5-18.3,6.2-26.5,11.4c-2.4,1.4-4.8,3.4-5.3,6.3c0.5,2.8,2,6,5.1,6.4c9,2.1,17.2-3.3,25.2-6.4
		c7.2-2.7,14.3-6.3,22.1-6.5c6.8-0.3,14.2-0.7,19.9,3.5c5.5,3.3,7.8,9.5,9.7,15.3c1.2,3.7,1.4,7.8,0.2,11.5
		c-4.3,12.1-10.1,23.8-18.3,33.7c-7.9,9.6-15.3,20.1-25.7,27.3c-4.3,3.1-8.6,6.2-12.9,9.3c-4.6,3.3-8.3,7.6-12.6,11.3
		s-7.6,8.4-10.8,13.1c-3.7,5.5-6.8,11.7-6.2,18.5c-0.5,6.2,6.7,8.5,11.6,9.3c14.2,0.5,28.4-0.6,42.6,0.4c9.2,1.2,18.8,1.3,27.4,5.5
		c6.5,2.6,11.5,7.9,15,13.8c2.3,3.9,1.5,8.6,1.7,13c-0.2,4.4,0.5,9-1.4,13.2c-4.5,8.8-12.4,15-20.1,20.9
		c-12.7,10.6-27.2,18.7-40.4,28.5c-14,10.5-28.1,21.1-41.2,32.9c-3.2,3.1-7.8,6.4-7,11.5c0,2.5,2.2,4.3,4.5,4.4
		c9.3,0.8,18.6,0.1,27.8-1.3c13.1-1.8,26.8-0.3,38.8,5.3c6.1,2.8,10.8,7.9,14.4,13.5c2,2.9,1.6,6.6,1.7,10
		c-0.1,4.7,0.3,9.7-1.6,14.2c-3.1,7.5-8.8,13.8-15.1,18.7c-8.1,5.7-17.3,9.6-26.3,13.6c-8.8,4.1-18.4,6.2-27.6,9.3
		c-7.2,2.4-14.8,3.9-22.1,6c-9.8,3.4-20.1,5.4-30.3,7.6c-13.4,3.2-27.6,3-40.2,8.9c-2.8,1.6-6.5,3.8-6.1,7.6c0.2,4.3,4,7,6.6,10
		c3.6,3.6,4.9,9.1,4,14c-1.7,12-7.7,23.9-17.7,31c-9.5,5.3-19.4,9.6-29.6,13.3c-7.7,2.5-15.4,4.7-23,7.2c-7.4,2.6-15.4,2.6-23,4.5
		c-10,2.4-20.4,2.7-30.6,4.5c-6.3,1.1-12.6,0.7-18.9,0.8c-9-0.1-18,1.8-27,0.4c-9.4-0.1-18.7-1.6-28-3c-14.9-1.6-28.8-7.4-42.5-13.1
		c-10.1-3.5-19.5-8.6-29-13.4c-3.8-2-8-0.3-11.3,1.9c-4.9,3.3-9.2,7.5-13.6,11.4c-9.1,8.4-15.2,19.5-22.7,29.3
		c-13.1,19.6-24.2,40.4-34.5,61.6c-3.5,6.6-2.2,14.4-2.5,21.6c0.2,8.7-0.6,17.4,0.2,26.1c7.3,0.5,14.6,0,21.9,0.2
		c8,0,16,0.2,23.9-0.3c0.7-17.1-0.6-34.3,0.7-51.4c12.8,0.2,25.6-0.3,38.4,0.1c-0.1,12.5-0.4,25-0.3,37.6
		c4.9-4.8,7.7-11.2,12.4-16.2c10.3-10.9,24.3-18.4,39.1-21c23-4.8,47.9,3.5,64.2,20.3c5.2,5.8,9.3,12.5,12.5,19.6
		c0.5,1.3,1.7,2.2,2.7,3.1c0.3-14.5-0.5-29-0.4-43.5c18.9-0.4,37.9,0.1,56.8-0.1c11-0.1,22.2,2.5,31.1,9.2
		c6.7,4.4,9.6,12.1,14.6,18.1c-0.1-9-0.5-18-0.3-26.9c15.8-0.6,31.7-0.1,47.6-0.2c17,0,34-0.1,50.9,0c0,11.2-0.4,22.3,0.1,33.5
		c-19.8,0.5-39.7,0.2-59.6,0.1c-0.2,6.5,0,13.1-0.1,19.6c9.9,0.6,19.8,0.1,29.7,0.3c7.2-0.2,14.5,0.5,21.7-0.8
		c-0.3,10.6-0.2,21.3-0.3,31.9c-17,0.1-34,0-51-0.1c-0.1,7.2-0.1,14.5,0,21.7c14.5,1,29.1-1.3,43.6-0.1c5.8,0.6,11.7,0.3,17.5,0.3
		c-0.1,11.3-0.2,22.5,0,33.7c-12.5,0.8-25-0.1-37.5,0.2c-14.7,0.1-29.3,0.2-44,0c-6.2-0.1-12.4,0.4-18.6-0.2
		c0.1-22.4-0.2-44.8,0.1-67.2c-4.1,3.3-5.9,8.5-9.7,12c-8.1,7.9-19.5,12.3-30.7,12.4c-7.6,0.1-15.3-0.1-22.9,0.1
		c-0.6,14.3-0.1,28.6-0.2,43c-12.9,0.1-25.8,0.1-38.7-0.2c-1.2-13.8,1.4-27.8,0-41.6c-1.6,1.5-3,3.1-3.9,5
		c-3.3,6.4-7.1,12.6-12.3,17.5c-7.6,6.8-16.2,12.7-25.9,15.9c-5.2,1.7-10.5,3.1-15.9,4c-23.4,2.9-48.1-6.7-62.9-25.2
		c-3.3-4.1-5.6-8.9-8.5-13.3c-0.3,0.1-0.8,0.2-1.1,0.3c-0.7,12.5,1.3,25,0.5,37.6c-12.9,0.1-25.9-0.1-38.9-0.2
		c-0.6-18.3,0.1-36.5-0.2-54.8c-15.3,0-30.7-0.2-46,0c-0.5,18.4,0,36.8-0.4,55.2c-12.8-0.2-25.6-0.5-38.4-0.1
		c-0.8-5.8-0.4-11.6-0.5-17.4c0-32,0-64.1-0.1-96.1c0.2-4.2-2.4-7.8-4.3-11.3c-5.7-10.4-10.4-21.2-15-32c-2.7-6.5-6.3-12.5-8.7-19.1
		c-3.6-10.5-8.4-20.7-10.3-31.8c-3-16.7-3.6-33.7-4.4-50.6c-0.6-7.3-1.1-14.7-0.3-21.9c2-4.5,6.4-7.3,10.3-10
		c17-10.7,36.5-18.5,56.8-19c9.3-1.4,18.6,1.5,27.3,4.7c11.3,5.3,21.9,12.4,31.2,20.7c10.6,8.6,21.7,17.1,34.8,21.5
		c3.2,1.2,6.7,0.2,9.8-1c20.2-8.4,40.8-16.4,62.4-20.2c16.6-3.5,33.3-6.5,49.8-10.2c8.2-1.7,16.4-3.6,24.4-6.2
		c8.2-3.7,16.5-7.4,23.9-12.7c14-8.6,27.9-17.8,39.4-29.7c3.9-4.1,8.3-7.9,11.1-12.9c6.5-9.9,12.5-20.3,16.5-31.5
		c2-5.4,3.3-11,4.8-16.6c3-11.1,3.5-22.7,2.9-34.1c-1.2-11.5-3.6-22.9-5.8-34.2c-1.9-12.3-7-24.1-7.4-36.6
		c-1.2-10-0.5-20.1-0.7-30.1c-0.2-15.4,3.1-30.7,8.8-44.9c4.7-8.9,8.6-18.3,14.1-26.8c4.4-7.6,10.2-14.3,13.6-22.3
		c5.5-12.4,8.4-26.4,5.9-39.9c-1.9-6.2-3.1-13.2-8.4-17.6c-6.5-6.8-16.7-7.3-25.6-6.8c-10.1,0.8-17.1,8.9-24.4,15
		c-7.5,8.5-13.1,18.4-18.7,28.3c-3.9,8.2-7.5,17-7.2,26.2c0.3,7.9,7.4,13.4,14.2,16c2.6,1.2,6.4,1.7,7.2,5c0,2-1.1,4.4-3.5,4.4
		c-8.5,0.9-18-1.8-23.1-9c-1.9-2.9-4.1-5.9-4.2-9.4c-0.2-5,0-10,0.1-15c0.2-6.4,2.6-12.4,5.2-18.2c5.7-12.1,12.8-23.6,21-34.1
		c5.2-6.2,10.6-12.5,18.1-15.9c8.2-3.8,17.1-7.1,26.2-5.8c6.7,0.4,12.8,4.6,19.6,3.7c6-0.9,11.4-4,17.4-4.9c2.2,0,5.3,0.9,5.6,3.5
		c0.6,3.6-0.7,7.1-2,10.4c-1.9,4.8-6.1,8.8-5.9,14.4c-0.3,13,0.2,26.3-3,39c-2.6,9.8-6.3,19.5-11.9,27.9
		c-6.4,9.2-12.4,18.7-17.1,28.9c-3.1,7.7-6.9,15.2-8.6,23.4c-5.3,18.3-5.4,37.8-3,56.6c0.7,5.2,2.7,10,3.7,15.1
		c1.8,9,5.8,17.4,9.2,25.9c2.7,5.9,3.6,12.3,6,18.3c3.2,8.2,3.8,17.2,3.4,25.9c0.2,11.1-0.4,22.4-4.5,32.9
		c-5.2,16.4-13,32-23.1,45.9c-6.5,8.2-12.9,16.6-21.5,22.7c-6.7,4.5-12.8,9.9-19.7,14.1c-10.4,7.1-21.8,12.4-33.2,17.7
		c-9.3,4.4-19.6,6.1-29.6,8.3c-7.3,1.2-14.8,1.5-22.1,2.7c-11.3,0.8-22.3,4-33.5,5.7c-11.9,1.7-23.4,5.5-34.9,9.1
		c-3.7,1.2-7.5,2.3-10.7,4.5c-1.8,1.2-3.7,3.1-3.2,5.4c3.1,4.6,8.9,5.6,13.8,7.1c15.8,5.3,31.8,10.5,48.4,12.8
		c7.7,1.9,15.6,1.8,23.4,1.7c13.9,0.3,27.6-1.8,41.5-2.8c15.9-1,31.5-4.2,47.4-5.6c11.9-1.9,24-4.3,35.2-8.9
		c5.6-2.3,11.1-5.4,15-10.2c4-4.7,7.2-10.9,6-17.2c-2.3-8.5-12.9-10.9-15.3-19.4c-0.6-4.2-0.9-9.2,2.3-12.5
		c4.7-5.5,12.1-7.1,18.7-9.2c5.9-1.9,12.1-2.3,18.1-3.6c15-3.3,30.5-4.1,45-9c20-6,41-8.9,60.4-17c10.3-5.3,21.1-11.8,26.3-22.6
		c3.8-7.5,2.3-17.5-4.2-22.9c-5.3-4.4-12-6.6-18.5-8.9c-4.5-1.6-9.2-2.7-14-2c-8,1.1-16,0.9-24,0.8c-5.4-0.1-11.4-1.2-14.9-5.6
		c-4-4.1-3.3-10.6-1.5-15.6c4.3-9.7,13.3-16,21.3-22.5c8.8-6.5,16.7-14.1,25.6-20.4c12.3-9.3,24.6-18.8,37.1-27.8
		c7.9-6.1,16.9-12.1,20.2-22c1.7-4-0.7-8.1-3-11.4c-4.8-6.3-11.1-11.8-18.8-14.3c-17.8-6.7-37.1-5-55.8-5.6c-5.7,0-11-2.7-14.4-7.3
		c-2.7-2.6-2.8-6.5-2.7-10c0.1-11.9,4.7-23.5,12.1-32.6c9.4-12.8,21.7-23,32.7-34.3c7.3-6.4,14.5-12.9,20.6-20.4
		c6.6-8,15.2-14.8,19.2-24.6c1.3-3.2,2.6-7.1,0.8-10.4c-3-6-10.1-9.5-16.7-9.3c-7.3-0.1-14,3.1-20.4,6.3c-4.8,2.7-10,5.1-15.6,5
		c-6.4-0.1-13.1,0.7-19.3-1.6c-8-3.6-10.9-14.1-7.5-21.9c3.8-6.2,10.8-9.2,17.3-11.6c4.9-2,10.5-3.7,13.9-8.1
		c2.2-2.6,1.6-6.8-0.7-9.2c-3.6-3.9-8.9-5.3-13.9-6.4c-6.4-1.4-12.5-5.8-14.5-12.2c-1.3-3.7-1.3-7.8-1.2-11.7
		c0-8.2,4.3-15.6,8.2-22.6c4.2-7.1,6.9-15.1,7.1-23.4c-1.1-7.9-5.9-16-13.7-18.8c-3-1.1-6.2-1.9-9.3-1.2c-8.6,1.7-17.7,2.2-25.6,6.6
		c-6.9,3.5-12.6,9.3-15.7,16.4c-3.4,8.1-7.1,16.1-11.4,23.7c-2.4,4.3-6.8,7.5-11.8,7.7c-4.9,0.2-10,0.7-14.5-1.5
		c-8-3.3-12.9-10.9-20.1-15.3c-4.9-2.8-10.6,0.2-14.8,2.9c-11,7.2-15.1,21-15.7,33.4c1.4,13.3,2.3,26.7,1.3,40
		c-0.4,5.9-4.7,10.4-9,13.9c-8.7,6.7-21,7-30.8,2.7c-10.4-3.8-18.4-12.4-29.3-14.9c-9.8-1.8-21.1,2-26.7,10.6
		c-1.8,4.5-0.4,9.6,0.2,14.2c2.7,14.3,2.7,28.9,2,43.4c-1.3,8.7-2.6,18.1-8.4,25.1c-5.5,7.8-17.2,8.5-24.9,3.8
		c-8.1-6.1-11.6-16-15.9-24.9c-3.9-9.6-7.9-19.1-12.5-28.4c-2.6-5.8-4.9-11.7-7.8-17.3c-3.3-6.8-5.9-13.9-9.3-20.7
		c-3-6.3-6.8-12.2-9.1-18.8c-3.4-10.2-7.3-20.3-9.3-30.9c-2.3-8.3-3.4-17-6.8-25c-2.7-6.4-6-12.5-9.8-18.3s-7.1-12.1-12.4-16.7
		c-3.3-2.4-8,0.2-8.6,4.1c-1.2,7.7,0.4,15.5,2.4,23c2.9,10.2,4.8,20.6,8.4,30.6c2.3,6.4,3.5,13.3,6.9,19.2c2.3,4.2,7.3,5.2,11.4,6.8
		c7.5,2.5,12.2,9.7,15,16.7c1.7,5.1,2.8,10.8,1.2,16.1c-1.6,4.4-6.6,6.4-11,5.6c-5.6-0.2-8.3-5.6-11-9.7c-3.2-4.8-4.5-10.6-7.7-15.4
		c-2-3-6.4-0.6-7.8,1.8c-2.6,5-3,11-2.8,16.6c1.2,9.2,3.1,18.3,6,27.1c1.9,6.1,3.5,12.3,6,18.1c5.5,12,11,24,15.5,36.4
		c2.9,6.8,6.1,13.6,10.1,19.9c1.9,2.9,4.4,5.8,8,6.3c9.8,2,19.9,3.3,28.9,8c8.9,3.9,17.4,8.9,25.1,14.8c4.8,3.5,9.9,6.7,13.6,11.4
		c4.3,5.3,9.3,10.2,12.9,16.1c2.9,5.6,3.2,12.6,0.6,18.3c-3,5.2-9.5,7-15.1,6c-9-1.5-17.5-5.5-24.8-10.9c-7-5.2-14.1-10.4-20-17
		c-7.3-8-14.5-16.2-21.6-24.3c-5-5.7-8.7-13.9-16.9-15.4c-13.1-2.3-26.6-2.8-39.6-6.4c-22.4-5-44.8-10.7-65.7-20.2
		c-9.9-3.3-19.5-7.6-28.9-12.1c-13-5.4-24.1-14.1-36.6-20.5C58.3,186,40.4,176.7,27,162c-4.2-4.2-7.7-9.2-12.7-12.4
		c-1.5-1.2-4.1,1.1-2.8,2.8c6.1,16.7,17.8,30.6,29.8,43.4c8.1,8.2,15.9,16.8,24.6,24.4c2.9,2.4,5.8,5.2,9.5,6.4
		c2.4,0.7,4.9-0.6,7.2-1.1c6.4-2.1,13.1-1.9,19.7-1.4c9.6,1,19.6,3.2,27.3,9.3c5.4,3.9,9,10.8,7.2,17.5c-1.5,4.3-5.8,7.1-10.3,7.4
		c-11.6,1.5-23.5-0.9-33.9-6.1c-5-2.9-9.7-6.8-15.3-8.5c-1.1,1.6-3.2,3.2-2.5,5.4c1.7,4.9,5,8.9,7.8,13.1
		c6.7,10.1,15.8,18.7,26.1,25c5.2,3.2,11,5.1,16.6,7.4c7.7,3,16,4.3,23.7,7.4c4.9,2,10.2,3.2,15.3,4.5c4,1,7.9,2.6,12.1,2.4
		c4.7-0.1,9.2-1.8,14-2.1c12.6-0.4,25.3,0.4,37.4,3.9c5.3,1.8,11.5,4.1,13.9,9.6c0.7,3.8,1.3,8.5-1.6,11.5c-1.3,1.4-2.7,3-4.7,3
		c-6.4,0.4-13,0.3-19.3-1.4c-8.9-2.4-17.3-6.2-26.1-9c-4.9-1.6-10-5.2-15.3-3.1c-4.9,2.6-9.4,6.1-13.3,10c-3,2.8-3.1,7.5-1.9,11.2
		c4.8,4,11.6,3.2,17.5,3.8c7.8,1,15.7,2.3,23.2,4.6c5.9,1.9,11.7,5.7,13.9,11.7c1.8,4.7,1.2,11-3.2,14.1c-4.1,3.1-9.6,2.3-14.5,2.3
		c-11.5-0.6-21.6-7.1-29.9-14.6c-4.4-3.8-9.3-9-15.7-7.5c-6.1,1.8-12.2,4.5-16.8,9c-4.1,4-1.1,10.2,2.5,13.4
		c4.4,3.8,8.7,8,14.2,10.3c5.6,1.8,11.1-2,16.7-1.8c6.8,0.2,14.2-1,20.4,2.4c3.5,1.7,5,6.1,4.1,9.7c-2.3,3.6-6,6.6-10.4,6.9
		c-6.6,0.4-13.4,0.1-19.8-1.8c-3.6-1-8-2.3-11.1,0.6c-4.5,4.3-7.1,11.2-4.6,17.2c3.2,8.1,8.9,15.5,16.7,19.6
		c8.9,4.8,18,9.3,27.8,11.5c5.5,1.3,10.1-2.4,14.9-4.3c5.1-2.2,10.7-1.6,16.1-1.7c6.1,0,12.6-0.5,18.3,2.4c5.6,2.5,11.3,8.3,9.3,15
		c-2.1,5.3-8.1,8.2-13.6,7.8c-9.1,0.8-17.8-2.5-26.6-3.9c-1.9-0.4-3.9,0-5.6,1.1c-2.5,6.2,2.7,11.7,7,15.5c4.6,3.8,8.6,9.8,15.2,10
		c9.4-1.2,16.8-7.8,24.9-12.3c9.1-4.9,18.5-9.6,28.6-12.1c5.8-0.5,12-1.2,17.4,1.3c7.7,3.3,10.6,15.1,4.4,21.1
		c-4.2,4.5-10,6.9-15.6,9.3c-8.3,3.6-17.1,6-25.9,7.7c-10.2,0.7-20.5,0.2-30.8,0.1c-5.5-0.2-9.3,4.3-13.6,6.9
		c-12.2,7.7-24.2,16.2-38,20.8c-3,0.9-6.1,0.5-9.1,0.3c0-3.5,2.6-6,5.3-7.8c10.7-7,21.7-13.6,32.5-20.6c1.9-1.6,5.2-3,4.9-6
		c0.3-2.4-1.7-4-3.2-5.6c-5.2-4.8-10.3-10-13.7-16.3c-2.6-4.8-1.9-10.4-3.3-15.5c-0.5-2.6-3.4-3.3-5.5-4.1
		c-11.1-3.5-22.3-7.2-31.9-13.8c-3.5-2.5-6.1-5.9-8.9-9c-5.9-6.3-8.9-15.1-8.7-23.7c0.1-6.2,4.2-11.3,5.9-17
		c-1.6-7.1-9.5-9.5-13.4-15c-4.8-4.8-5.4-12.1-4-18.4c2.2-6.4,8-11,14.1-13.4c3.3-1.5,7.1-2.1,9.9-4.3c3.8-6.1,0.7-14.2,4.8-20.3
		c2.6-3.8,6.8-6.7,7.4-11.6c-3.6-2.7-7.7-4.5-12.1-5.4c-9.2-1.9-17.8-5.9-26.9-8.1c-8.6-2.1-16.6-6.1-23.8-11.1
		c-10.5-6.7-18.3-16.5-25.3-26.6c-2.9-4.5-5.6-9.3-7.3-14.4c-1.6-5.9,0.4-12.1-0.3-18.1c-0.3-2.5-2.5-4.1-4.2-5.7
		c-5.8-4.6-10.9-9.8-16.3-14.7c-9.9-10.5-20.4-20.6-28.2-32.8c-4.6-7.2-9.3-14.3-12.9-22.1c-2.2-4.8-3.7-10.3-2.3-15.6
		c2.6-8.1,15.1-9.9,20-3c5.8,7.2,10.6,15.3,17.8,21.2c12.2,11.2,27,18.6,41.3,26.7c15.1,8.4,30.1,17,45.7,24.3
		c7.9,3.1,15.5,6.7,23.4,9.8c12.6,5.9,26,9.9,39.3,13.6c12.9,4,26.4,5.6,39.6,8.6c4.7,1,9.8,2.6,14.4,0.5c1.6-3.9-0.3-7.8-1.9-11.4
		c-3.6-8.1-6.7-16.5-10.5-24.5c-3-6.9-7.2-13.2-9.3-20.5c-2.7-9.7-6.2-19.1-8.1-29c-2.8-12.2-5.9-25.4-1.2-37.5
		c1.2-3.3,2.6-6.6,4.9-9.3c1.8-2.3,4.1-4.5,4.8-7.5c0.6-2.2-0.1-4.5-0.7-6.7c-4.9-13.4-8.2-27.3-11.7-41.1
		c-2.5-10.6-4.1-21.5-2.6-32.3c0.8-5.8,6.1-11.6,12.3-10.8c4.6,1.2,8.9,3.7,12.3,6.9c7.7,7.4,12.8,17,17.6,26.4
		c7,13.6,9.8,28.7,13.5,43.4c1.7,7.5,4.6,14.5,7.5,21.6c2.8,6.4,6.8,12.3,9.2,18.9c5.2,11.5,10.8,22.8,15.3,34.6
		c3.9,9,8.5,17.7,12.1,26.8c3.2,7.4,6.2,15.2,12,21.1c2.5,2.4,5.7,5,9.4,4c5.3-1.5,8.1-7.1,9.6-12c1.9-7.7,1.9-15.7,1.3-23.6
		c0-6.3-0.3-12.6-1.6-18.7c-1-9.8-7.5-19.2-4.2-29.3c3.3-7.5,8.1-15.6,16.4-18.3c7.5-2.1,15.9-3.5,23.3-0.2
		c11.8,4.9,22.6,11.6,33,18.9c6.8,4.4,16.7,2.6,21.3-4.1c2.3-3.9,2.3-8.7,1.9-13.1c-1.2-13.6-1.9-27.3-1.3-40.9
		c0.3-4.1,1.6-8.2,3.9-11.6c4.4-6.8,10-12.6,16.3-17.6c3.8-2.9,7.9-5.8,12.6-7.2c4.4-0.7,8.9-0.6,13.3-0.2c8.2,1.6,13.2,8.8,20,12.8
		c5,3,11-0.1,14.4-4.1c7.6-8.8,10.3-20.6,17.4-29.7C528.3,13.4,533.1,9.8,537.8,6.2 M240.6,128.7c1.8,3.5,4.6,8.5,9.3,7.3
		c2.1-1.9,2-4.9,1.2-7.4c-2-6.4-6.6-12.6-13.5-13.9C235.1,119.4,238.6,124.4,240.6,128.7 M499.4,146.7c-0.6,3.8,3.7,5.5,6.7,6.4
		c2.5-2.9,2.9-6.8,2.7-10.5C505.4,142.8,500.6,142.9,499.4,146.7 M92.3,231.7c-1.4,0.6-3.4,1.9-2.9,3.7c1.1,4.1,5.1,6.3,8.5,8.1
		c7.5,3.6,15.4,7.6,24,6.7c1.7,0,4-0.8,3.8-2.9c0.5-5.9-5.4-9.5-10.1-11.5C108.3,232.8,100.1,229.9,92.3,231.7 M274.2,259.6
		c-1.3,0.9-1.1,2.9-0.7,4.2c1.7,3.7,4.8,6.5,7.5,9.5c6.5,6.5,12.2,13.8,19,19.9c6.2,5.6,12.3,11.3,19.3,15.8c4,2.6,8.7,4.2,13.5,4
		c2.6,0.1,4.7-2.4,4.8-4.8c0.4-3.9-2.3-7.1-4.5-9.9c-8.5-10.5-18.6-19.8-30.1-27c-6.8-5-14.2-9.2-22.1-12
		C278.7,258.9,276.1,258.2,274.2,259.6 M193.3,315.8c-0.2,1.5,1.2,2.3,2.3,3c7.7,4.4,16.8,5.3,25.4,7c3.3,0.6,6.6,0.3,9.9,0
		c-0.6-2.2-1.6-4.4-3.8-5.4c-7.2-3.5-15.1-5.6-23-6.4C200.3,313.7,196.3,313.3,193.3,315.8 M179.1,358.4c2.3,5.1,7.8,7.4,12.5,9.6
		c3.8,1.6,8.3,3.1,12.1,0.6c0.1-3.9-2.1-7.7-5.8-9.1c-4.2-1.5-8.6-3-13-3.8C182.5,355.2,180.8,357.2,179.1,358.4 M160.2,397.4
		c5.7,4.4,13.6,3.6,20.2,2.4c2.6-0.2,2.2-2.9,2.3-4.7c-4.2-0.9-8.5-1.9-12.8-1.8C166.4,393.7,162.2,394,160.2,397.4 M209.9,457.4
		c-2.4,0.5-2,4.3,0.4,4.6c8.7,3,18.4,3.9,27.4,1.9c-0.1-1.6,0.3-3.4-0.4-4.9c-2-3-5.9-3.8-9.4-4
		C221.9,454.8,215.5,454.9,209.9,457.4 M277.5,484.9c-8.2,2.9-16.4,6.3-23.4,11.5c0.7,1.7,1.8,3.6,3.9,3.3
		c7.5-0.2,14.5-3.2,21.4-5.9c3.3-1.3,7.4-4.4,5.8-8.3C283.5,482.7,280,484.2,277.5,484.9 M118.3,550.3c-10.8,1.6-19.9,8-29.4,12.8
		c-3.5,2.1-7.9,4.1-9.3,8.3c-1,6.1,1.2,12.1,2.1,18c1.9,15,4.5,29.9,7.5,44.7c2.3,12.2,7.4,23.5,12.1,34.9
		c4.6,11.2,10.6,21.7,15.7,32.6c1.1,2.7,4.3,3.8,7,3.2c2.3-1.2,3.6-3.6,4.8-5.7c2.9-5.5,5.8-10.9,8.7-16.3
		c4.3-8.2,9.5-15.8,14.3-23.6c6.2-9.2,11.7-18.9,18.2-27.9c4.5-6.4,11-11,16.5-16.4c5.6-5.4,11.8-10.2,16.6-16.3
		c1.6-1.8,2.3-4.9,0.3-6.7c-6.5-7.3-15.8-11.3-22.5-18.5c-7.2-6.2-15.5-11.2-24.3-15c-6.8-3.2-13.6-6.5-21-8.2
		C129.9,549.5,124,549.5,118.3,550.3 M287.2,739.5c-8.8,2.3-16.2,8.9-20.1,17.1c-4.1,10.2-5.3,21.9-1.7,32.4
		c2.3,9.4,9.2,17.4,18.1,21.1c5.2,2,11,2.2,16.5,1.6c10.7-1.4,20.1-9.3,23.7-19.4c3.6-10.5,4.3-22.3,0.1-32.7
		C319.4,744.6,302.1,735.7,287.2,739.5 M399.9,739.1c-0.6,9.8-0.1,19.6-0.1,29.4c6.4,0.3,12.8,0.4,19.2,0.1c3.1-0.3,6.9-0.7,8.4-3.8
		c2.4-5,2.4-10.9,1.7-16.3c-0.5-4.7-4.3-9-9.1-9.3C413.3,738.9,406.6,738.8,399.9,739.1z"/>
	<path class="st0" d="M139.4,864c2.7,0,5.4,0.3,7.9,1.1c7.2,5.9,10.1,15.8,18,20.8c0.3-7.1-1.7-14.2-0.5-21.3c4-0.5,8-0.5,11.9,0
		c1,6.9,0.5,13.8,0.6,20.7c-0.1,7.7,0.2,15.4-0.6,23c-4.4,1.1-9.6,0.7-12.7-3.1c-3.8-4.9-7.5-9.9-11.1-15c-0.8-1.3-2.2-2-3.4-2.8
		c-0.7,7,1.2,14,0.4,21.1c-3.9,0.5-7.9,0.5-11.8-0.1c-0.5-11.3,0.3-22.7-0.5-34.1C138,871,136.9,866.7,139.4,864z"/>
	<path class="st0" d="M107.9,865.6c3.1-2.3,7.9-1.1,11.7-1.3c0.8,7.3,0.2,14.7,0.2,22.1c-0.1,7.3,0.1,14.7-0.1,22
		c-4,0.4-7.9,0.2-11.9,0.1C107.7,894.2,107.2,879.9,107.9,865.6z"/>
	<path class="st0" d="M194.9,864.3c4-0.1,7.9-0.1,11.9,0.2c0.9,6-0.1,11.9,0,17.9c0.2,8.7,0.1,17.4-0.1,26.1
		c-3.9,0.3-7.9,0.2-11.8,0.2C194.9,893.9,194.6,879.1,194.9,864.3z"/>
	<path class="st0" d="M221.6,864.9c12.4-0.5,24.9,0,37.3-0.3c0.4,3.1,0.9,6.3,0.5,9.4c-0.9,1.6-2.9,1.4-4.5,1.3
		c-2.9-0.2-5.7-0.4-8.5-0.2c0.1,5.7-0.1,11.5,0,17.2c-0.1,5.5,0.5,11-0.5,16.5c-3.8-0.2-7.6-0.2-11.4,0c0-11.3,0.3-22.6-0.2-33.9
		c-4.3,0-8.6,0.3-12.8,0C221.4,871.6,221.5,868.2,221.6,864.9z"/>
	<path class="st0" d="M274.4,864.3c3.9-0.3,7.9,0,11.8,0.3c0.5,9.6,0,19.2,0.1,28.9c0,5.2,0.5,10.4-0.3,15.5c-3.9,0-7.7,0-11.5,0
		C274.6,894.1,274.3,879.2,274.4,864.3z"/>
	<path class="st0" d="M314.9,867.3c1.1-3.8,5.9-3.6,9-3c3,0.3,4.2,3.4,5.2,5.9c3.3,10,6.5,20,10,29.9c1.1,2.8,2.2,5.7,2.6,8.8
		c-4,0.6-8,0.4-12-0.2c-1.4-2.8-1.3-6.6-3.9-8.6c-3.3-0.8-6.7-0.4-10.1-0.2c-1.2,3.1-1,8.6-5.4,9c-2.9,0.5-5.8,0.4-8.7,0.3
		c0.2-5.5,2.5-10.5,4.2-15.7C308.8,884.8,311.8,876,314.9,867.3 M319.5,881.9c-1.7,3.1-2.2,6.7-2.3,10.2c2.5,0.5,5.1,0.5,7.6,0.2
		c-0.3-3.9,0-8.5-3.1-11.5C320.6,880.4,319.8,880.8,319.5,881.9z"/>
	<path class="st0" d="M348.4,864.8c12.5-0.3,25,0,37.6-0.2c0.4,3.5,0.5,7,0.1,10.5c-4.3,0-8.5-0.3-12.7,0
		c0.3,11.2,0.3,22.4,0.1,33.6c-4.1,0.2-8.1,0.1-12.2-0.6c-0.4-11,0.7-22.1,0-33.1c-4.3,0-8.6,0-12.9-0.1
		C348.1,871.6,348.2,868.2,348.4,864.8z"/>
	<path class="st0" d="M400.5,864.7c4.1-0.8,8.3-0.8,12.5,0c0.9,6.9,0.3,13.8,0.4,20.7c-0.1,7.7,0.2,15.5-0.3,23.2
		c-4.2,0.4-8.5,0.2-12.7-0.5C400.6,893.7,400.7,879.2,400.5,864.7z"/>
	<path class="st0" d="M428.1,864.7c4-1.3,8.2-0.2,12.2,0.4c2.7,9,4.4,18.4,7.2,27.4c2.8-2.1,3.1-5.9,4.2-9
		c1.9-6.1,2.8-12.4,4.7-18.5c3.9-0.8,7.9-1,11.9-0.6c-0.2,5.7-2.8,10.8-4.9,16c-2.5,7.9-6,15.5-8.2,23.4c-0.8,2-1.6,5.3-4.4,5.1
		c-3.3,0.4-7.6,0.3-9.1-3.4c-5-11.6-8.8-23.8-13.2-35.7C428.4,868.2,426.7,866.1,428.1,864.7z"/>
	<path class="st0" d="M483.3,864.6c10.2,0.4,20.4,0.2,30.6,0c0.3,3.5,0.4,7,0.1,10.5c-5.6,0.2-11.3-0.4-16.9,0.1
		c-3.1,0.5-3.1,5.9,0.1,6.3c4.8,0.6,9.6-0.1,14.4,0.4c0.2,3,0.1,5.9-0.1,8.9c-5.2,0.3-10.5,0.2-15.7,0.2c-0.7,2.3-1,4.6-0.6,7
		c6.3,1.1,12.6,0.3,18.9,0.1c0.4,3.3,0.5,6.6,0.5,9.9c-10.5,0.4-21,0.8-31.6,0.5C483.4,893.9,482,879.2,483.3,864.6z"/>
	<path class="st0" d="M540.6,865.2c6.7-1.5,13.8-0.1,19.9,2.8c1.5,0.6,1.2,2.6,1,3.9c-0.8,2.7-3.1,4.5-4.8,6.6
		c-2.6-1.1-5-2.6-7.7-3.5c-2.8-0.7-5.7,0.1-8.3,1.3c4.6,6.3,13.4,5.3,19.1,10.1c4.2,2.4,2.8,8,3,12c0.2,4.5-3.9,7.4-7.7,8.9
		c-8.5,3.1-17.5-0.3-26.1-1.3c-0.8-3.8,0.1-8.1,2.5-11.1c3.4-0.9,6.4,1.3,9.3,2.6c2.8,1.3,6,1.5,9,0.6c1.8-2.2-1.3-3.9-3-4.8
		c-5.5-2.2-11.7-3.5-15.9-7.9c-2.5-3.5-1.3-8.1-0.2-11.9C531.9,868.9,536.4,866.6,540.6,865.2z"/>
	<path class="st0" d="M167.8,928.9c9.1-0.1,18.3,0,27.4,0c-0.1,1.4,0.2,3.6-1.6,4.1c-3.1,0.5-6.3,0.1-9.4,0.2
		c-1,9.8,0.4,19.6-0.3,29.3c-1.6,0-3.1,0-4.7,0.1c-0.4-9.9,0.8-19.9-0.4-29.8c-3.5,0.1-7,0.3-10.5,0.2
		C168.1,931.6,167.9,930.2,167.8,928.9z"/>
	<path class="st0" d="M243.3,928.8c7.3,0.3,15.7-1.6,21.7,3.6c2.3,2.6,2.5,6.6,2.1,9.9c-0.5,3.6-3.7,5.7-6.1,8.1
		c2.6,3.9,5.8,7.6,6.3,12.5c-2.1-0.4-5.1-0.3-6.3-2.6c-1.6-3.1-2.8-6.3-4.4-9.3c-3.1-0.2-6.3-0.4-9.4-0.3c-0.1,3.7,0.1,7.4,0.3,11.1
		c-1.3,0.5-2.5,1-3.8,1.5c-1.3-4.2-0.5-8.5-0.7-12.8C242.6,943.2,243.1,936,243.3,928.8 M248.3,933.5c-1.5,3.6-1.1,7.9-1.2,11.7
		c2.5,2,6.7,1.5,9.9,1.4c4.8-0.4,6.5-6.2,5.1-10.1C259.3,932,252.8,932.3,248.3,933.5z"/>
	<path class="st0" d="M335.1,928.6c1,0.2,2.1,0.3,3.1,0.5c2.7,7.5,6.2,14.7,8.9,22.2c1.3,3.9,4.8,7.9,2.7,12.2
		c-5-1.2-4.8-7-7.8-10.1c-3.7-1.3-7.9-0.7-11.8-0.4c-3.2,3-3,10.1-8.5,9.8c0.7-6.4,4-12.1,6.2-18.2
		C330.5,939.3,331.9,933.5,335.1,928.6 M330.4,947.7c3.2,1.5,6.7,2.5,10.3,2.5c-0.4-4.8-1.9-9.3-3.7-13.7
		C332.1,937.8,332.3,943.9,330.4,947.7z"/>
	<path class="st0" d="M356.8,928.9c9.3-0.1,18.6-0.3,27.9,0.1c-0.2,1.6,0.2,3.9-1.8,4.5c-3.1,0.9-6.3-0.4-9.3-0.7
		c-1.2,9.8-0.6,19.7-0.9,29.5c-1.5,0-2.9,0-4.4,0c-0.1-9.8,0.5-19.5,0-29.3c-3.5,0-7,0.3-10.5,0.4
		C357.5,931.9,357.1,930.4,356.8,928.9z"/>
	<path class="st0" d="M396.5,928.8c1.7,0,3.3,0,5,0c0.3,11.4,0.3,22.8-0.1,34.2c-1.6-0.2-3.3-0.5-4.9-0.7
		C396.3,951.1,396.1,939.9,396.5,928.8z"/>
	<path class="st0" d="M427.3,928.9c9.7-2.1,18.6,7.1,18.3,16.5c0.9,10.4-10.2,20.4-20.5,16.9c-6.3-2.4-11.3-8.9-11-15.9
		C413.6,938.5,419.6,930.7,427.3,928.9 M428.3,933.8c-2.8,0.2-5.3,1.9-6.5,4.5c-3.2,4.5-3.6,11-0.2,15.5c2.1,2.8,5.2,6,9.1,5.1
		c8.7-1.3,12.5-12.9,7.7-19.8C436.4,935.4,432.6,932.6,428.3,933.8z"/>
	<path class="st0" d="M482.3,928.7c1.4,0,2.8,0,4.2,0c-0.4,11.6,2,23.3-0.6,34.8c-1.8-0.8-3.8-1.4-4.9-3.2c-2.4-3.3-4.8-6.5-7.5-9.5
		c-3.2-3.7-5.5-8.2-9.8-10.9c-0.6,1.7-1.2,3.5-0.9,5.4c0.5,5.6,0.7,11.2,0.8,16.9c-1.3,0.3-2.6,0.6-3.9,0.9c-2-5.4-0.6-11.1-1-16.7
		c0.3-6-1-12.3,1-18c4.5,2.5,7,7.2,10.3,10.9c3.9,4.3,7.2,9,11.1,13.3c0.9-1.6,1.4-3.3,1.2-5.1C482.2,941.2,481.8,935,482.3,928.7z"
		/>
	<path class="st0" d="M509.4,934.8c1-2.5,2-7.5,5.8-5.7c2.6,3.1,3.4,7.2,5.1,10.8c2.8,7.6,6.9,14.7,8.6,22.6
		c-1.4,0.2-2.8,0.5-4.3,0.3c-2.2-2.8-2.5-6.6-4.4-9.7c-3.8-1-7.9-0.7-11.7-0.2c-3.1,1.8-2.9,5.9-4.4,8.7c-1.5,0.8-3.3,1.1-5,1.5
		C500.3,953,506.7,944.5,509.4,934.8 M513.1,936.9c-1.9,3.8-4.3,7.6-4,12c2.9,0.5,5.9,0.7,8.8,0.4
		C517.6,944.9,516.7,939.9,513.1,936.9z"/>
	<path class="st0" d="M541.4,929.5c1.5-0.3,3-0.7,4.5-1c0.8,9.2,0.1,18.4,0.4,27.6c0.1,2.2,2.9,2.8,4.7,2.6c4.5-0.3,9-1,13.4,0.2
		c0.1,0.6,0.4,1.8,0.6,2.4c-2.2,0.8-4.5,1.4-6.8,1.3c-5.5,0-11.1,0.4-16.6-0.6C540.2,951.3,541.3,940.4,541.4,929.5z"/>
	<path class="st0" d="M107.8,931.4c-0.1-1.8,1.6-2.9,3.3-2.6c1.7,2.1,1.3,5,1.3,7.6c-0.3,8.7,0.3,17.3-0.2,26
		c-1.5,0.1-3,0.2-4.5,0.3C107.8,952.3,107.5,941.8,107.8,931.4z"/>
	<path class="st0" d="M127.7,928.9c1.8,0.5,4.1,0.8,5.2,2.5c4.5,5.9,9.5,11.3,13.5,17.6c1.3,1.5,2.2,4.4,4.7,3.7
		c0.4-7.8-0.8-15.7-0.4-23.6c1.5-0.1,3.1-0.2,4.7-0.2c0.8,4.5,0,9,0.2,13.6c0.1,6.6-0.1,13.2-0.2,19.7c-1.5,0.3-3.2,0.6-4.3-0.8
		c-5.4-6.1-9.9-12.8-15.2-18.9c-1.1-1.4-2.7-2.3-4.2-3.3c-0.4,7.7,1,15.3,0.4,23c-1.5,0.2-3,0.4-4.6,0.5
		C127.3,951.4,127.5,940.1,127.7,928.9z"/>
	<path class="st0" d="M207.3,929.2c7.2-0.4,14.6-1.2,21.7,0.3l0.7,0.2c-0.4,1.5-0.9,3.6-2.9,3.6c-4.9,0.6-9.8-0.6-14.7,0
		c-0.4,3.3-0.6,6.7-0.3,10c5-0.1,9.9-0.3,14.9-0.4c0,1.5,0,3,0,4.6c-4.6,0.7-9.2-0.1-13.8-0.3c-2.6,3-1,7.6-1.1,11.3
		c6,0.8,12.1-0.2,18.1,0.3c-0.2,1.3-0.4,2.6-0.6,3.9c-7.3,0.1-14.6,0.1-21.9,0.2C206.8,951.6,207.1,940.4,207.3,929.2z"/>
	<path class="st0" d="M281.3,929.3c1.6,0,3.5-0.2,4.4,1.4c4.5,5.5,9.4,10.9,13.1,17.1c1.4,2.5,3.6,4.4,6.5,5.1
		c-0.4-7.9-1-15.8-0.6-23.8c1.5,0,3.1,0,4.6,0c0,11.1,0,22.1,0,33.2c-1.4-0.1-2.8-0.3-4.2-0.5c-2.6-2.6-4.4-5.8-6.9-8.5
		c-4.2-4.6-7.4-10.1-12.2-14.1c-1.7,7.7,0.5,15.6-0.1,23.3c-1.5,0-3.1,0-4.6,0C279.9,951.4,281.6,940.3,281.3,929.3z"/>
</g>
</svg>
